<?xml version="1.0" encoding="UTF-8"?>
<svg id="_图层_1" data-name="图层 1" xmlns="http://www.w3.org/2000/svg" xmlns:xlink="http://www.w3.org/1999/xlink" viewBox="0 0 141 113.33">
  <defs>
    <style>
      .cls-1 {
        stroke: #00913a;
      }

      .cls-1, .cls-2, .cls-3, .cls-4, .cls-5 {
        fill: none;
      }

      .cls-1, .cls-2, .cls-4, .cls-5 {
        stroke-miterlimit: 8;
      }

      .cls-1, .cls-3 {
        stroke-width: 4px;
      }

      .cls-6 {
        fill: #fff;
      }

      .cls-2 {
        stroke: #8f338e;
      }

      .cls-2, .cls-4, .cls-5 {
        stroke-width: 2px;
      }

      .cls-7 {
        stroke-linejoin: round;
        stroke-width: .46px;
      }

      .cls-7, .cls-8 {
        fill: #e73828;
      }

      .cls-7, .cls-5 {
        stroke: #e73828;
      }

      .cls-3 {
        stroke: url(#_未命名的渐变_344);
        stroke-linecap: round;
        stroke-miterlimit: 10;
      }

      .cls-4 {
        stroke: #036eb7;
      }

      .cls-9 {
        fill: #666;
        font-family: ArialMT, Arial;
        font-size: 18px;
      }
    </style>
    <linearGradient id="_未命名的渐变_344" data-name="未命名的渐变 344" x1="19.8" y1="70.11" x2="121.16" y2="70.11" gradientUnits="userSpaceOnUse">
      <stop offset="0" stop-color="#ff2f1f"/>
      <stop offset=".04" stop-color="#fe431a"/>
      <stop offset=".12" stop-color="#fd6c12"/>
      <stop offset=".21" stop-color="#fc8f0c"/>
      <stop offset=".29" stop-color="#fba906"/>
      <stop offset=".38" stop-color="#fbbc02"/>
      <stop offset=".47" stop-color="#fbc800"/>
      <stop offset=".56" stop-color="#fbcc00"/>
      <stop offset=".8" stop-color="#f0932e"/>
      <stop offset=".89" stop-color="#e9652d"/>
      <stop offset="1" stop-color="#e4352b"/>
    </linearGradient>
  </defs>
  <text class="cls-9" transform="translate(17.18 96.01) scale(1.04 1)"><tspan x="0" y="0">DeepH-dock</tspan></text>
  <g>
    <polyline class="cls-1" points="111.71 71.09 98.41 45.37 85.85 45.37"/>
    <polyline class="cls-2" points="54.55 48.48 46.12 48.48 34.12 70.58 29.36 70.58"/>
    <polyline class="cls-4" points="53.78 45.37 44.58 45.37 31.48 69.38 26.28 69.38"/>
    <polyline class="cls-5" points="53.32 42.63 42.9 42.63 28.07 69.48 22.18 69.48"/>
    <g>
      <rect class="cls-6" x="54.59" y="39.02" width="31.8" height="11.42"/>
      <polygon class="cls-6" points="54.14 23.01 66.08 23.01 60.11 65.28 48.16 65.28 54.14 23.01"/>
      <polygon class="cls-6" points="79.66 23.25 91.59 23.25 85.62 65.53 73.67 65.53 79.66 23.25"/>
    </g>
    <g>
      <polygon class="cls-7" points="72.72 14.73 83.83 21.91 83.36 22.89 72.68 17.38 62.04 22.89 61.61 21.91 72.72 14.73 72.72 14.73"/>
      <g>
        <polyline class="cls-8" points="56.14 25.48 63.27 25.48 57.97 62.82 50.97 62.82"/>
        <polyline class="cls-8" points="81.66 25.72 88.78 25.72 83.48 63.06 76.48 63.06"/>
        <rect class="cls-8" x="57.18" y="41.53" width="26.6" height="6.41"/>
      </g>
    </g>
    <line class="cls-3" x1="21.8" y1="70.11" x2="119.16" y2="70.11"/>
  </g>
</svg>