<?xml version="1.0" encoding="UTF-8"?>
<svg id="_图层_1" data-name="图层 1" xmlns="http://www.w3.org/2000/svg" xmlns:xlink="http://www.w3.org/1999/xlink" viewBox="0 0 351.75 64.33">
  <defs>
    <style>
      .cls-1 {
        stroke: #00913a;
      }

      .cls-1, .cls-2, .cls-3, .cls-4, .cls-5 {
        fill: none;
      }

      .cls-1, .cls-2, .cls-4, .cls-5 {
        stroke-miterlimit: 8;
      }

      .cls-1, .cls-3 {
        stroke-width: 4px;
      }

      .cls-6 {
        fill: #666;
        font-family: MicrosoftYaHei, 'Microsoft YaHei';
        font-size: 34px;
      }

      .cls-7 {
        fill: #fff;
      }

      .cls-2 {
        stroke: #8f338e;
      }

      .cls-2, .cls-4, .cls-5 {
        stroke-width: 2px;
      }

      .cls-8 {
        stroke-linejoin: round;
        stroke-width: .46px;
      }

      .cls-8, .cls-9 {
        fill: #e73828;
      }

      .cls-8, .cls-5 {
        stroke: #e73828;
      }

      .cls-3 {
        stroke: url(#_未命名的渐变_344);
        stroke-linecap: round;
        stroke-miterlimit: 10;
      }

      .cls-4 {
        stroke: #036eb7;
      }
    </style>
    <linearGradient id="_未命名的渐变_344" data-name="未命名的渐变 344" x1="6.69" y1="56.66" x2="108.05" y2="56.66" gradientUnits="userSpaceOnUse">
      <stop offset="0" stop-color="#ff2f1f"/>
      <stop offset=".04" stop-color="#fe431a"/>
      <stop offset=".12" stop-color="#fd6c12"/>
      <stop offset=".21" stop-color="#fc8f0c"/>
      <stop offset=".29" stop-color="#fba906"/>
      <stop offset=".38" stop-color="#fbbc02"/>
      <stop offset=".47" stop-color="#fbc800"/>
      <stop offset=".56" stop-color="#fbcc00"/>
      <stop offset=".8" stop-color="#f0932e"/>
      <stop offset=".89" stop-color="#e9652d"/>
      <stop offset="1" stop-color="#e4352b"/>
    </linearGradient>
  </defs>
  <g>
    <polyline class="cls-1" points="98.6 57.64 85.3 31.92 72.74 31.92"/>
    <polyline class="cls-2" points="41.44 35.03 33.01 35.03 21.01 57.13 16.25 57.13"/>
    <polyline class="cls-4" points="40.74 31.92 31.54 31.92 18.44 55.93 13.24 55.93"/>
    <polyline class="cls-5" points="40.21 29.18 29.79 29.18 14.96 56.02 9.08 56.02"/>
    <g>
      <rect class="cls-7" x="41.48" y="25.57" width="31.8" height="11.42"/>
      <polygon class="cls-7" points="41.04 9.56 52.97 9.56 47 51.83 35.05 51.83 41.04 9.56"/>
      <polygon class="cls-7" points="66.55 9.8 78.48 9.8 72.51 52.08 60.56 52.08 66.55 9.8"/>
    </g>
    <g>
      <polygon class="cls-8" points="59.61 1.28 70.72 8.45 70.25 9.44 59.57 3.93 48.93 9.44 48.5 8.45 59.61 1.28 59.61 1.28"/>
      <g>
        <polyline class="cls-9" points="43.03 12.03 50.16 12.03 44.86 49.36 37.86 49.36"/>
        <polyline class="cls-9" points="68.55 12.27 75.67 12.27 70.37 49.61 63.37 49.61"/>
        <rect class="cls-9" x="44.07" y="28.07" width="26.6" height="6.41"/>
      </g>
    </g>
    <line class="cls-3" x1="8.69" y1="56.66" x2="106.05" y2="56.66"/>
  </g>
  <text class="cls-6" transform="translate(119.95 44.78) scale(1.04 1)"><tspan x="0" y="0">DeepH-dock</tspan></text>
</svg>