<?xml version="1.0" encoding="UTF-8"?>
<svg id="_图层_1" data-name="图层 1" xmlns="http://www.w3.org/2000/svg" xmlns:xlink="http://www.w3.org/1999/xlink" viewBox="0 0 111.37 76.16">
  <defs>
    <style>
      .cls-1 {
        stroke: #00913a;
      }

      .cls-1, .cls-2, .cls-3, .cls-4, .cls-5 {
        fill: none;
      }

      .cls-1, .cls-2, .cls-4, .cls-5 {
        stroke-miterlimit: 8;
      }

      .cls-1, .cls-3 {
        stroke-width: 4px;
      }

      .cls-6 {
        fill: #fff;
      }

      .cls-2 {
        stroke: #8f338e;
      }

      .cls-2, .cls-4, .cls-5 {
        stroke-width: 2px;
      }

      .cls-7 {
        stroke-linejoin: round;
        stroke-width: .46px;
      }

      .cls-7, .cls-8 {
        fill: #e73828;
      }

      .cls-7, .cls-5 {
        stroke: #e73828;
      }

      .cls-3 {
        stroke: url(#_未命名的渐变_344);
        stroke-linecap: round;
        stroke-miterlimit: 10;
      }

      .cls-4 {
        stroke: #036eb7;
      }
    </style>
    <linearGradient id="_未命名的渐变_344" data-name="未命名的渐变 344" x1="5.02" y1="59.56" x2="106.37" y2="59.56" gradientUnits="userSpaceOnUse">
      <stop offset="0" stop-color="#ff2f1f"/>
      <stop offset=".04" stop-color="#fe431a"/>
      <stop offset=".12" stop-color="#fd6c12"/>
      <stop offset=".21" stop-color="#fc8f0c"/>
      <stop offset=".29" stop-color="#fba906"/>
      <stop offset=".38" stop-color="#fbbc02"/>
      <stop offset=".47" stop-color="#fbc800"/>
      <stop offset=".56" stop-color="#fbcc00"/>
      <stop offset=".8" stop-color="#f0932e"/>
      <stop offset=".89" stop-color="#e9652d"/>
      <stop offset="1" stop-color="#e4352b"/>
    </linearGradient>
  </defs>
  <polyline class="cls-1" points="96.93 60.54 83.63 34.82 71.06 34.82"/>
  <polyline class="cls-2" points="39.76 37.93 31.33 37.93 19.33 60.03 14.57 60.03"/>
  <polyline class="cls-4" points="38.99 34.82 29.79 34.82 16.69 58.83 11.49 58.83"/>
  <polyline class="cls-5" points="38.53 32.07 28.12 32.07 13.29 58.92 7.4 58.92"/>
  <g>
    <rect class="cls-6" x="39.81" y="28.47" width="31.8" height="11.42"/>
    <polygon class="cls-6" points="39.36 12.46 51.29 12.46 45.32 54.73 33.37 54.73 39.36 12.46"/>
    <polygon class="cls-6" points="64.87 12.7 76.8 12.7 70.84 54.98 58.89 54.98 64.87 12.7"/>
  </g>
  <g>
    <polygon class="cls-7" points="57.93 4.18 69.04 11.35 68.57 12.34 57.89 6.83 47.25 12.34 46.82 11.35 57.93 4.18 57.93 4.18"/>
    <g>
      <polyline class="cls-8" points="41.36 14.93 48.48 14.93 43.18 52.26 36.18 52.26"/>
      <polyline class="cls-8" points="66.87 15.17 74 15.17 68.69 52.51 61.69 52.51"/>
      <rect class="cls-8" x="42.4" y="30.97" width="26.6" height="6.41"/>
    </g>
  </g>
  <line class="cls-3" x1="7.02" y1="59.56" x2="104.37" y2="59.56"/>
</svg>